<?xml version="1.0" encoding="UTF-8"?>
<!-- Generator: Adobe Illustrator 23.0.1, SVG Export Plug-In . SVG Version: 6.00 Build 0)  -->
<svg version="1.1" id="Layer_1" xmlns="http://www.w3.org/2000/svg" xmlns:xlink="http://www.w3.org/1999/xlink" x="0px" y="0px" viewBox="0 0 411 381.2" style="enable-background:new 0 0 411 381.2;" xml:space="preserve">
<style type="text/css">
	.st0{display:none;opacity:9.000000e-02;}
	.st1{display:inline;fill:#FFFFFF;}
	.st2{display:inline;}
	.st3{fill:url(#SVGID_1_);}
	.st4{fill:url(#SVGID_2_);}
	.st5{fill:url(#SVGID_3_);}
	.st6{fill:#D82A2A;}
	.st7{fill:url(#SVGID_4_);}
	.st8{fill:url(#SVGID_5_);}
	.st9{fill:url(#SVGID_6_);}
	.st10{fill:url(#SVGID_7_);}
	.st11{fill:url(#SVGID_8_);}
	.st12{fill:url(#SVGID_9_);}
	.st13{fill:url(#SVGID_10_);}
	.st14{fill:url(#SVGID_11_);}
</style>
<g class="st0">
	<path class="st1" d="M205.5,369.9c-29,0-81-32.3-123.6-76.8c-23.7-24.8-43.5-52.1-57.3-79.2c-16-31.3-24.1-62-24.1-91.2   C0.5,62.9,49.2,14.2,109,14.2c40.4,0,77.2,22.2,96.1,58l0.4,0.8l0.4-0.8c18.9-35.8,55.7-58,96.1-58c59.8,0,108.5,48.7,108.5,108.5   c0,51.5-29.7,112.7-81.4,167.8C285.8,336.5,233.9,369.9,205.5,369.9z"/>
	<path class="st2" d="M302,14.7c28.9,0,56,11.2,76.4,31.6S410,93.9,410,122.7c0,27.5-8.1,57.1-24,88c-13.9,26.8-33.6,54.3-57.2,79.4   c-21.2,22.6-45.3,43-67.8,57.3c-22.1,14.2-41.8,22-55.4,22c-28.9,0-80.7-32.3-123.2-76.7C58.7,268,39,240.6,25.2,213.6   C9.1,182.5,1,151.8,1,122.7c0-28.8,11.2-56,31.6-76.4S80.2,14.7,109,14.7c40.2,0,76.9,22.1,95.6,57.8l0.9,1.7l0.9-1.7   C225.1,36.9,261.8,14.7,302,14.7 M302,13.7c-41.9,0-78.3,23.6-96.5,58.3c-18.3-34.7-54.6-58.3-96.5-58.3c-60.2,0-109,48.8-109,109   c0,125,149,247.7,205.5,247.7S411,240.7,411,122.7C411,62.5,362.2,13.7,302,13.7L302,13.7z"/>
</g>
<radialGradient id="SVGID_1_" cx="129.7025" cy="1355.991" r="128.7952" fx="133.22" fy="1358.4077" gradientTransform="matrix(1 0 0 1 0 -1289.9575)" gradientUnits="userSpaceOnUse">
	<stop offset="0" style="stop-color:#E15961"/>
	<stop offset="8.860001e-02" style="stop-color:#E25359"/>
	<stop offset="0.4322" style="stop-color:#E33F40"/>
	<stop offset="0.7458" style="stop-color:#E53331"/>
	<stop offset="1" style="stop-color:#E52F2C"/>
</radialGradient>
<path class="st3" d="M0.5,114.2c25,4,118.5-58.7,124.5-99.5c22,1,58,24,62,33c13.8,31.1-140,139-178,128  C2,159.7-0.8,127.2,0.5,114.2z"/>
<radialGradient id="SVGID_2_" cx="262.3282" cy="1377.4442" r="279.1799" fx="248.295" fy="1381.1212" gradientTransform="matrix(1 0 0 1 0 -1289.9575)" gradientUnits="userSpaceOnUse">
	<stop offset="6.950000e-02" style="stop-color:#E15961"/>
	<stop offset="0.2634" style="stop-color:#E3474B"/>
	<stop offset="0.4793" style="stop-color:#E43A39"/>
	<stop offset="0.714" style="stop-color:#E5322F"/>
	<stop offset="1" style="stop-color:#E52F2C"/>
</radialGradient>
<path class="st4" d="M224,47.7c-16,74-157.5,150.5-206,153c11,26,32,57,38,63c115-3,316-179,295-238C322,6.7,252,8.7,224,47.7z"/>
<radialGradient id="SVGID_3_" cx="369.0923" cy="1438.723" r="218.9408" fx="371.6397" fy="1472.9119" gradientTransform="matrix(1 0 0 1 0 -1289.9575)" gradientUnits="userSpaceOnUse">
	<stop offset="8.280000e-02" style="stop-color:#E15961"/>
	<stop offset="0.1395" style="stop-color:#E25056"/>
	<stop offset="0.2701" style="stop-color:#E34243"/>
	<stop offset="0.4233" style="stop-color:#E43736"/>
	<stop offset="0.6188" style="stop-color:#E5312E"/>
	<stop offset="1" style="stop-color:#E52F2C"/>
</radialGradient>
<path class="st5" d="M84,295.7c48-7,309-154,300-244c24,19,35,67,19,119c-26.9,87.4-232.4,169-271,167C122,330.7,97,312.7,84,295.7z  "/>
<path class="st6" d="M157,353.7c24,5,174-64,194-88c-24,37-44,47-56,57c-37,30.8-90.4,48.3-97,47C182,366.7,165,358.7,157,353.7z"/>
<radialGradient id="SVGID_4_" cx="75.6903" cy="-289.2983" r="48.9771" gradientTransform="matrix(1 0 0 -1 0 -268)" gradientUnits="userSpaceOnUse">
	<stop offset="0" style="stop-color:#E15961"/>
	<stop offset="8.860001e-02" style="stop-color:#E25359"/>
	<stop offset="0.4322" style="stop-color:#E33F40"/>
	<stop offset="0.7458" style="stop-color:#E53331"/>
	<stop offset="1" style="stop-color:#E52F2C"/>
</radialGradient>
<path class="st7" d="M6,86.7c38.8,4.9,94-46.9,88.2-77.5C86.4,4.4,70.4,0,59.5,0C61.2,30.6,29,53.7,20,59.7C14.4,63.4,6,86.7,6,86.7  z"/>
<radialGradient id="SVGID_5_" cx="65.4941" cy="54.1423" r="50.474" fx="64.8919" fy="53.468" gradientUnits="userSpaceOnUse">
	<stop offset="0" style="stop-color:#9F0C1D"/>
	<stop offset="0.5746" style="stop-color:#8E0C1D"/>
	<stop offset="0.9955" style="stop-color:#7F0C1D"/>
</radialGradient>
<path class="st8" d="M65.3,84.6c28.9-20.7,56.4-48.3,59.7-69.8c-0.3,0-0.7-0.1-1-0.1c-12.7,0-22.5,10.2-36.5,21.7  C72,63.2,34.6,90.3,6,86.7C10.5,96.3,36.5,96.1,65.3,84.6z"/>
<radialGradient id="SVGID_6_" cx="116.4899" cy="116.5499" r="90.2299" fx="122.7164" fy="124.6045" gradientUnits="userSpaceOnUse">
	<stop offset="0" style="stop-color:#9F0C1D"/>
	<stop offset="0.5746" style="stop-color:#8E0C1D"/>
	<stop offset="0.9955" style="stop-color:#7F0C1D"/>
</radialGradient>
<path class="st9" d="M71.9,184.6C132.5,158,212.1,102.2,224,47.8c-20.1,17.5-49,41.7-79.4,58.8C99.6,144.3,32.4,182.5,9,175.7  C26.9,184.2,48.4,186.7,71.9,184.6z"/>
<g>
	<radialGradient id="SVGID_7_" cx="384.9133" cy="52.4703" r="0.586" fx="385.0132" fy="52.5586" gradientUnits="userSpaceOnUse">
		<stop offset="0" style="stop-color:#9F0C1D"/>
		<stop offset="0.5746" style="stop-color:#8E0C1D"/>
		<stop offset="0.9955" style="stop-color:#7F0C1D"/>
	</radialGradient>
	<path class="st10" d="M385.5,53c-0.4-0.5-0.8-0.8-1.3-1.1C384.7,52.3,385.1,52.6,385.5,53z"/>
	
		<radialGradient id="SVGID_8_" cx="220.1686" cy="161.8401" r="139.8516" fx="244.0116" fy="182.892" gradientUnits="userSpaceOnUse">
		<stop offset="0" style="stop-color:#9F0C1D"/>
		<stop offset="0.5746" style="stop-color:#8E0C1D"/>
		<stop offset="0.9955" style="stop-color:#7F0C1D"/>
	</radialGradient>
	<path class="st11" d="M188.3,247.5C278.6,195.1,389.8,111.1,384,51.8c0,0,0,0,0,0c-11.5-4.3-36.9,24.3-71.6,57.7   c-61,70.6-178.4,152.1-256.3,154.2C72,279.8,124.2,272.7,188.3,247.5z"/>
</g>
<g>
	
		<radialGradient id="SVGID_9_" cx="131.8408" cy="337.5765" r="0.1633" fx="131.8564" fy="337.5858" gradientUnits="userSpaceOnUse">
		<stop offset="0" style="stop-color:#9F0C1D"/>
		<stop offset="0.5746" style="stop-color:#8E0C1D"/>
		<stop offset="0.9955" style="stop-color:#7F0C1D"/>
	</radialGradient>
	<path class="st12" d="M132,337.7C132,337.7,132,337.7,132,337.7c-0.1-0.1-0.2-0.2-0.4-0.2C131.8,337.5,131.9,337.6,132,337.7z"/>
	
		<radialGradient id="SVGID_10_" cx="243.5204" cy="298.5067" r="84.4164" fx="251.5949" fy="303.3435" gradientUnits="userSpaceOnUse">
		<stop offset="0" style="stop-color:#9F0C1D"/>
		<stop offset="0.5746" style="stop-color:#8E0C1D"/>
		<stop offset="0.9955" style="stop-color:#7F0C1D"/>
	</radialGradient>
	<path class="st13" d="M229.2,332.1c50.3-21.1,109.5-51.8,121.7-66.3c2.5-3.3,4-5.8,4.1-7.1c0.4-6.4-18.9-1.3-44.4,7   c-69.3,43.3-154.9,73.2-178.5,72C143.3,345.1,188.6,339.6,229.2,332.1z"/>
</g>
<radialGradient id="SVGID_11_" cx="241.893" cy="359.3659" r="31.8097" gradientUnits="userSpaceOnUse">
	<stop offset="0" style="stop-color:#9F0C1D"/>
	<stop offset="0.5746" style="stop-color:#8E0C1D"/>
	<stop offset="0.9955" style="stop-color:#7F0C1D"/>
</radialGradient>
<path class="st14" d="M264.6,343.5c-28.2,16.2-56.5,25.5-64.8,26.2c20.6,4.7,36.1-5,54.4,5.5c8.5-4.4,21.6-17.2,29.8-26.4  C279.1,343.9,272,343,264.6,343.5z"/>
</svg>