<?xml version="1.0" encoding="UTF-8" standalone="no"?>
<svg
   xmlns:dc="http://purl.org/dc/elements/1.1/"
   xmlns:cc="http://creativecommons.org/ns#"
   xmlns:rdf="http://www.w3.org/1999/02/22-rdf-syntax-ns#"
   xmlns:svg="http://www.w3.org/2000/svg"
   xmlns="http://www.w3.org/2000/svg"
   xmlns:xlink="http://www.w3.org/1999/xlink"
   xmlns:sodipodi="http://sodipodi.sourceforge.net/DTD/sodipodi-0.dtd"
   xmlns:inkscape="http://www.inkscape.org/namespaces/inkscape"
   viewBox="0 0 170.36172 341.18102"
   id="svg2"
   version="1.1"
   inkscape:version="0.91 r13725"
   sodipodi:docname="apache.svg"
   width="170.36172"
   height="341.18103">
  <metadata
     id="metadata177">
    <rdf:RDF>
      <cc:Work
         rdf:about="">
        <dc:format>image/svg+xml</dc:format>
        <dc:type
           rdf:resource="http://purl.org/dc/dcmitype/StillImage" />
        <dc:title>ApacheTM_LogoURL</dc:title>
      </cc:Work>
    </rdf:RDF>
  </metadata>
  <sodipodi:namedview
     pagecolor="#ffffff"
     bordercolor="#666666"
     borderopacity="1"
     objecttolerance="10"
     gridtolerance="10"
     guidetolerance="10"
     inkscape:pageopacity="0"
     inkscape:pageshadow="2"
     inkscape:window-width="851"
     inkscape:window-height="493"
     id="namedview175"
     showgrid="false"
     fit-margin-top="0"
     fit-margin-left="0"
     fit-margin-right="0"
     fit-margin-bottom="0"
     inkscape:zoom="0.51418361"
     inkscape:cx="420.76018"
     inkscape:cy="160.27999"
     inkscape:window-x="0"
     inkscape:window-y="0"
     inkscape:window-maximized="0"
     inkscape:current-layer="svg2" />
  <defs
     id="defs4">
    <linearGradient
       id="linear-gradient"
       x1="-7649.3101"
       y1="-1141.52"
       x2="-7601.1201"
       y2="-1085.17"
       gradientTransform="matrix(0.42261826,-0.90630779,0.90630779,0.42261826,4395.91,-6421.269)"
       gradientUnits="userSpaceOnUse">
      <stop
         offset="0"
         stop-color="#f69923"
         id="stop7" />
      <stop
         offset="0.31"
         stop-color="#f79a23"
         id="stop9" />
      <stop
         offset="0.84"
         stop-color="#e97826"
         id="stop11" />
    </linearGradient>
    <linearGradient
       id="linear-gradient-2"
       x1="-8005.96"
       y1="-1147.74"
       x2="-7662.1602"
       y2="-1147.74"
       gradientTransform="matrix(0.42261826,-0.90630779,0.90630779,0.42261826,4442.68,-6372.68)"
       gradientUnits="userSpaceOnUse">
      <stop
         offset="0.32"
         stop-color="#9e2064"
         id="stop14" />
      <stop
         offset="0.63"
         stop-color="#c92037"
         id="stop16" />
      <stop
         offset="0.75"
         stop-color="#cd2335"
         id="stop18" />
      <stop
         offset="1"
         stop-color="#e97826"
         id="stop20" />
    </linearGradient>
    <linearGradient
       id="linear-gradient-3"
       x1="-7964.46"
       y1="-1113.26"
       x2="-7759.5801"
       y2="-1113.26"
       gradientTransform="matrix(0.42261826,-0.90630779,0.90630779,0.42261826,4442.68,-6372.68)"
       gradientUnits="userSpaceOnUse">
      <stop
         offset="0"
         stop-color="#282662"
         id="stop23" />
      <stop
         offset="0.1"
         stop-color="#662e8d"
         id="stop25" />
      <stop
         offset="0.79"
         stop-color="#9f2064"
         id="stop27" />
      <stop
         offset="0.95"
         stop-color="#cd2032"
         id="stop29" />
    </linearGradient>
    <linearGradient
       id="linear-gradient-4"
       x1="-7986.6499"
       y1="-1150.9399"
       x2="-7642.8501"
       y2="-1150.9399"
       xlink:href="#linear-gradient-2"
       gradientTransform="translate(-46.77,-48.588955)" />
    <linearGradient
       id="linear-gradient-5"
       x1="-7961.5698"
       y1="-1146.29"
       x2="-7780.8999"
       y2="-1146.29"
       xlink:href="#linear-gradient-3"
       gradientTransform="translate(-46.77,-48.588955)" />
    <linearGradient
       id="linear-gradient-6"
       x1="-7986.6499"
       y1="-1115.36"
       x2="-7642.8501"
       y2="-1115.36"
       xlink:href="#linear-gradient-2"
       gradientTransform="translate(-46.77,-48.588955)" />
    <linearGradient
       id="linear-gradient-7"
       x1="-8007.98"
       y1="-1117.13"
       x2="-7664.1699"
       y2="-1117.13"
       xlink:href="#linear-gradient-2"
       gradientTransform="translate(-46.77,-48.588955)" />
    <linearGradient
       id="linear-gradient-8"
       x1="-7986.6499"
       y1="-1104.78"
       x2="-7642.8501"
       y2="-1104.78"
       xlink:href="#linear-gradient-2"
       gradientTransform="translate(-46.77,-48.588955)" />
    <linearGradient
       id="linear-gradient-9"
       x1="-7986.6499"
       y1="-1105.99"
       x2="-7642.8501"
       y2="-1105.99"
       xlink:href="#linear-gradient-2"
       gradientTransform="translate(-46.77,-48.588955)" />
    <linearGradient
       id="linear-gradient-10"
       x1="-7793.5098"
       y1="-1106.23"
       x2="-7717.5098"
       y2="-1106.23"
       xlink:href="#linear-gradient-2"
       gradientTransform="translate(-46.77,-48.588955)" />
    <linearGradient
       inkscape:collect="always"
       xlink:href="#linear-gradient-2"
       id="linearGradient3505"
       gradientUnits="userSpaceOnUse"
       gradientTransform="matrix(0.42261826,-0.90630779,0.90630779,0.42261826,4395.91,-6421.269)"
       x1="-8005.96"
       y1="-1147.74"
       x2="-7662.1602"
       y2="-1147.74" />
    <linearGradient
       inkscape:collect="always"
       xlink:href="#linear-gradient-3"
       id="linearGradient3507"
       gradientUnits="userSpaceOnUse"
       gradientTransform="matrix(0.42261826,-0.90630779,0.90630779,0.42261826,4395.91,-6421.269)"
       x1="-7964.46"
       y1="-1113.26"
       x2="-7759.5801"
       y2="-1113.26" />
  </defs>
  <title
     id="title38">ApacheTM_LogoURL</title>
  <path
     d="m 145.23,1.6210446 c -5.35,3.16 -14.24,12.1000004 -24.85,25.0600004 l 9.75,18.41 a 239.93,239.93 0 0 1 20.81,-26.12 c 0.54,-0.6 0.82,-0.88 0.82,-0.88 l -0.82,0.88 c -2.27,2.5 -9.15,10.53 -19.54,26.49 10,-0.5 25.37,-2.54 37.91,-4.69 3.73,-20.89 -3.66,-30.46 -3.66,-30.46 0,0 -9.42,-15.2000004 -20.42,-8.6900004 z"
     style="isolation:isolate;fill:url(#linear-gradient)"
     id="path97"
     inkscape:connector-curvature="0" />
  <path
     d="m 128.7,106.60104 0.21,0 -1.41,0.15 -0.25,0.12 z"
     style="isolation:isolate;fill:none"
     id="path99"
     inkscape:connector-curvature="0" />
  <path
     d="m 118.74,139.57104 c -0.8,0.18 -1.61,0.32 -2.44,0.44 0.83,-0.12 1.65,-0.26 2.44,-0.44 z"
     style="isolation:isolate;fill:none"
     id="path101"
     inkscape:connector-curvature="0" />
  <path
     d="m 51.09,213.52104 0.31,-0.82 q 3.22,-8.5 6.38,-16.54 3.54,-9 7,-17.5 3.65,-8.93 7.19,-17.27 3.72,-8.75 7.32,-16.86 2.93,-6.6 5.77,-12.79 l 1.89,-4.08 q 1.86,-4 3.69,-7.85 1.69,-3.55 3.34,-6.94 l 1.1,-2.25 0.18,-0.36 -1.2,0.13 -0.95,-1.88 -0.28,0.55 q -2.57,5.1 -5.09,10.29 -1.46,3 -2.9,6 -4,8.38 -7.86,16.92 -3.86,8.54 -7.66,17.29 -3.69,8.51 -7.23,17 -3.54,8.49 -6.86,16.94 -3.52,8.77 -6.85,17.38 l -1.5,3.87 q -2.65,6.93 -5.22,13.66 l 1.5,3 1.34,-0.15 0.15,-0.41 q 3.25,-8.89 6.44,-17.33 z"
     style="isolation:isolate;fill:none"
     id="path103"
     inkscape:connector-curvature="0" />
  <path
     d="m 115.68,140.10104 0,0 z"
     style="isolation:isolate;fill:none"
     id="path105"
     inkscape:connector-curvature="0" />
  <path
     d="m 112.45,156.18104 -3.84,0.67 0,0 q 1,-0.14 2,-0.31 1,-0.17 1.84,-0.36 z"
     style="isolation:isolate;fill:#be202e"
     id="path107"
     inkscape:connector-curvature="0" />
  <path
     d="m 112.45,156.18104 -3.84,0.67 0,0 q 1,-0.14 2,-0.31 1,-0.17 1.84,-0.36 z"
     style="opacity:0.35;isolation:isolate;mix-blend-mode:screen;fill:#be202e"
     id="path109"
     inkscape:connector-curvature="0" />
  <path
     d="m 115.71,140.09104 0,0 0.62,-0.09 c 0.83,-0.12 1.64,-0.26 2.44,-0.44 l -3,0.52 0,0 z"
     style="isolation:isolate;fill:#be202e"
     id="path111"
     inkscape:connector-curvature="0" />
  <path
     d="m 115.71,140.09104 0,0 0.62,-0.09 c 0.83,-0.12 1.64,-0.26 2.44,-0.44 l -3,0.52 0,0 z"
     style="opacity:0.35;isolation:isolate;mix-blend-mode:screen;fill:#be202e"
     id="path113"
     inkscape:connector-curvature="0" />
  <path
     d="m 101.35,92.641045 q 4.45,-8.3 9,-16.22 4.73,-8.21 9.55,-15.91 l 0.57,-0.91 q 4.77,-7.56 9.63,-14.51 l -9.75,-18.41 -2.22,2.73 c -2.81,3.5 -5.73,7.27 -8.73,11.27 -3.38,4.51 -6.85,9.31 -10.37,14.36 q -4.88,7 -9.86,14.61 -4.22,6.46 -8.43,13.28 l -0.31,0.51 12.69,25.069995 q 4.11,-8.1 8.23,-15.869995 z"
     style="isolation:isolate;fill:url(#linearGradient3505)"
     id="path115"
     inkscape:connector-curvature="0" />
  <path
     d="m 43.56,233.86104 q -2.52,6.92 -5.06,14.12 l -0.07,0.21 -0.72,2 c -1.14,3.24 -2.13,6.15 -4.4,12.78 3.74,1.71 6.74,6.19 9.58,11.28 a 20.46,20.46 0 0 0 -6.66,-14.03 c 18.43,0.83 34.31,-3.83 42.51,-17.3 a 34.82,34.82 0 0 0 2,-3.81 c -3.73,4.73 -8.35,6.74 -17.06,6.25 l -0.06,0 0.06,0 c 12.82,-5.74 19.25,-11.24 24.94,-20.37 1.35,-2.16 2.66,-4.53 4,-7.15 -11.21,11.51 -24.2,14.79 -37.88,12.3 l -10.26,1.13 z"
     style="isolation:isolate;fill:url(#linearGradient3507)"
     id="path117"
     inkscape:connector-curvature="0" />
  <path
     d="m 48.35,210.87104 q 3.33,-8.59 6.85,-17.38 3.37,-8.4 6.91,-16.9 3.54,-8.5 7.23,-17 3.76,-8.67 7.66,-17.29 3.9,-8.62 7.86,-16.89 1.44,-3 2.9,-6 2.52,-5.19 5.09,-10.29 l 0.28,-0.55 -12.7,-25.159995 -0.62,1 q -4.44,7.24 -8.79,14.81 -4.35,7.569995 -8.59,15.549995 -3.54,6.66 -6.92,13.44 c -0.45,0.92 -0.9,1.83 -1.34,2.73 q -4.15,8.54 -7.52,16.47 -3.84,9 -6.78,17.13 -1.95,5.35 -3.56,10.32 -1.33,4.24 -2.54,8.48 -2.84,10 -4.87,19.87 l 12.76,25.2 q 2.53,-6.75 5.19,-13.69 z"
     style="isolation:isolate;fill:url(#linear-gradient-4)"
     id="path119"
     inkscape:connector-curvature="0" />
  <path
     d="m 28.74,204.16104 a 194.94,194.94 0 0 0 -3.31,24.05 c 0,0.28 0,0.56 -0.06,0.84 -4,-6.37 -14.64,-12.6 -14.61,-12.54 7.63,11.06 13.42,22 14.28,32.81 -4.08,0.84 -9.68,-0.37 -16.14,-2.75 6.74,6.19 11.8,7.91 13.77,8.37 -6.19,0.38 -12.64,4.64 -19.14,9.54 9.5,-3.88 17.18,-5.41 22.68,-4.16 -8.72,24.68 -17.46,51.93 -26.21,80.86 a 7.62,7.62 0 0 0 5.18,-5 c 1.56,-5.24 11.9,-39.61 28.1,-84.79 l 1.4,-3.88 0.38,-1.1 q 2.57,-7.1 5.32,-14.51 l 1.26,-3.37 0,-0.07 -12.72,-25.19 c -0.06,0.3 -0.13,0.59 -0.18,0.89 z"
     style="isolation:isolate;fill:url(#linear-gradient-5)"
     id="path121"
     inkscape:connector-curvature="0" />
  <path
     d="m 95.09,110.61104 -1.1,2.25 q -1.65,3.4 -3.34,6.94 -1.83,3.84 -3.69,7.85 l -1.89,4.08 q -2.84,6.19 -5.77,12.79 -3.6,8.11 -7.32,16.86 -3.55,8.34 -7.19,17.27 -3.46,8.48 -7,17.5 -3.16,8 -6.38,16.54 l -0.31,0.82 q -3.19,8.44 -6.44,17.33 l -0.15,0.41 10.26,-1.13 -0.61,-0.1 c 12.27,-1.53 28.58,-10.69 39.12,-22 a 97.45,97.45 0 0 0 13.34,-18.61 161,161 0 0 0 8.6,-17.88 c 2.37,-5.75 4.65,-12 6.85,-18.72"
     style="isolation:isolate;fill:url(#linear-gradient-6)"
     id="path123"
     inkscape:connector-curvature="0" />
  <path
     d="m 131.37,45.411045 c -2.86,4.4 -6,9.4 -9.37,15.05 l -0.53,0.9 q -4.36,7.35 -9.25,16.17 c -2.81,5.09 -5.73,10.54 -8.77,16.41 q -4,7.669995 -8.19,16.269995 l 32.23,-3.53 c 9.39,-4.32 13.59,-8.219995 17.66,-13.879995 1.08,-1.55 2.17,-3.19 3.25,-4.87 3.31,-5.17 6.56,-10.86 9.46,-16.52 a 170.22,170.22 0 0 0 7.17,-15.76 81.18,81.18 0 0 0 2.84,-8.53 c 0.59,-2.24 1,-4.36 1.41,-6.38 -12.53,2.17 -27.91,4.22 -37.91,4.67 z"
     style="isolation:isolate;fill:url(#linear-gradient-7)"
     id="path125"
     inkscape:connector-curvature="0" />
  <path
     d="m 110.55,156.55104 q -1,0.17 -2,0.31 l 0,0 q 1.03,-0.14 2,-0.31 z"
     style="isolation:isolate;fill:#be202e"
     id="path127"
     inkscape:connector-curvature="0" />
  <path
     d="m 110.55,156.55104 q -1,0.17 -2,0.31 l 0,0 q 1.03,-0.14 2,-0.31 z"
     style="opacity:0.35;isolation:isolate;mix-blend-mode:screen;fill:#be202e"
     id="path129"
     inkscape:connector-curvature="0" />
  <path
     d="m 110.55,156.55104 q -1,0.17 -2,0.31 l 0,0 q 1.03,-0.14 2,-0.31 z"
     style="isolation:isolate;fill:url(#linear-gradient-8)"
     id="path131"
     inkscape:connector-curvature="0" />
  <path
     d="m 115.68,140.10104 0.62,-0.09 -0.62,0.09 0,0 z"
     style="isolation:isolate;fill:#be202e"
     id="path133"
     inkscape:connector-curvature="0" />
  <path
     d="m 115.68,140.10104 0.62,-0.09 -0.62,0.09 0,0 z"
     style="opacity:0.35;isolation:isolate;mix-blend-mode:screen;fill:#be202e"
     id="path135"
     inkscape:connector-curvature="0" />
  <path
     d="m 115.68,140.10104 0.62,-0.09 -0.62,0.09 0,0 z"
     style="isolation:isolate;fill:url(#linear-gradient-9)"
     id="path137"
     inkscape:connector-curvature="0" />
  <path
     d="m 115.7,140.09104 0,0 z"
     style="isolation:isolate;fill:#be202e"
     id="path139"
     inkscape:connector-curvature="0" />
  <path
     d="m 115.7,140.09104 0,0 z"
     style="opacity:0.35;isolation:isolate;mix-blend-mode:screen;fill:#be202e"
     id="path141"
     inkscape:connector-curvature="0" />
  <path
     d="m 115.7,140.09104 0,0 z"
     style="isolation:isolate;fill:url(#linear-gradient-10)"
     id="path143"
     inkscape:connector-curvature="0" />
</svg>
