<?xml version="1.0" encoding="UTF-8" standalone="no"?>
<!-- Generator: Adobe Illustrator 15.0.0, SVG Export Plug-In . SVG Version: 6.00 Build 0)  -->

<svg
   xmlns:dc="http://purl.org/dc/elements/1.1/"
   xmlns:cc="http://creativecommons.org/ns#"
   xmlns:rdf="http://www.w3.org/1999/02/22-rdf-syntax-ns#"
   xmlns:svg="http://www.w3.org/2000/svg"
   xmlns="http://www.w3.org/2000/svg"
   xmlns:sodipodi="http://sodipodi.sourceforge.net/DTD/sodipodi-0.dtd"
   xmlns:inkscape="http://www.inkscape.org/namespaces/inkscape"
   version="1.1"
   id="Layer_1"
   x="0px"
   y="0px"
   width="109.2"
   height="102.206"
   viewBox="0 0 109.2 102.206"
   enable-background="new 0 0 612 792"
   xml:space="preserve"
   inkscape:version="0.91 r13725"
   sodipodi:docname="eclipse.svg"><metadata
     id="metadata68"><rdf:RDF><cc:Work
         rdf:about=""><dc:format>image/svg+xml</dc:format><dc:type
           rdf:resource="http://purl.org/dc/dcmitype/StillImage" /><dc:title></dc:title></cc:Work></rdf:RDF></metadata><defs
     id="defs66" /><sodipodi:namedview
     pagecolor="#ffffff"
     bordercolor="#666666"
     borderopacity="1"
     objecttolerance="10"
     gridtolerance="10"
     guidetolerance="10"
     inkscape:pageopacity="0"
     inkscape:pageshadow="2"
     inkscape:window-width="1918"
     inkscape:window-height="1078"
     id="namedview64"
     showgrid="false"
     fit-margin-top="0"
     fit-margin-left="0"
     fit-margin-right="0"
     fit-margin-bottom="0"
     inkscape:zoom="2.3838384"
     inkscape:cx="131.90452"
     inkscape:cy="33.932008"
     inkscape:window-x="0"
     inkscape:window-y="0"
     inkscape:window-maximized="0"
     inkscape:current-layer="Layer_1" /><path
     d="m 30.054,65.209995 -16.744,0 c 2.217,7.605 6.331,14.421 12.354,20.445 9.602,9.603004 21.148,14.398005 34.65,14.398005 2.699,0 5.314,-0.201 7.854,-0.584 10.17,-1.535 19.074,-6.133005 26.703,-13.814005 6.062,-6.022 10.205,-12.84 12.439,-20.445 l -6.795,0 -9.936,0 -60.525,0 z"
     id="path3"
     inkscape:connector-curvature="0"
     style="fill:#2c2255" /><g
     id="g5"
     transform="translate(-71.07,-327.726)"><path
       d="m 91.891,370.194 -8.747,0 c -0.32,1.922 -0.538,3.884 -0.637,5.896 l 10.396,0 5.215,0 75.275,0 6.871,0 c -0.1,-2.012 -0.318,-3.974 -0.641,-5.896"
       id="path7"
       inkscape:connector-curvature="0"
       style="fill:#2c2255" /><path
       d="m 82.507,381.565 c 0.099,2.013 0.316,3.975 0.637,5.896 l 9.094,0 6.893,0 73.648,0 6.846,0 c 0.322,-1.921 0.542,-3.883 0.642,-5.896"
       id="path9"
       inkscape:connector-curvature="0"
       style="fill:#2c2255" /></g><path
     d="m 107.312,36.991995 c -2.232,-7.626 -6.376,-14.474 -12.441,-20.54 -7.609,-7.609 -16.488,-12.1739999 -26.625,-13.7099999 -2.564,-0.389 -5.205,-0.593 -7.932,-0.593 -13.502,0 -25.049,4.7689999 -34.65,14.3029999 -6.025,6.066 -10.141,12.914 -12.357,20.54"
     id="path11"
     inkscape:connector-curvature="0"
     style="fill:#2c2255" /><g
     id="g13"
     transform="translate(-71.07,-327.726)"><path
       d="m 79.6,378.829 c 0,-25.824 19.395,-47.281 44.626,-51.055 -0.626,-0.023 -1.255,-0.048 -1.887,-0.048 -28.314,0 -51.269,22.88 -51.269,51.103 0,28.224 22.954,51.103 51.269,51.103 0.634,0 1.263,-0.024 1.891,-0.047 C 98.995,426.111 79.6,404.654 79.6,378.829 Z"
       id="path15"
       inkscape:connector-curvature="0"
       style="fill:#f7941e" /></g><g
     id="g33"
     transform="translate(-71.07,-327.726)"><linearGradient
       id="SVGID_1_"
       gradientUnits="userSpaceOnUse"
       x1="131.3853"
       y1="358.5762"
       x2="131.3853"
       y2="432.21109"
       gradientTransform="matrix(1,0,0,-1,0,793)"><stop
         offset="0.3033"
         style="stop-color:#473788"
         id="stop36" /><stop
         offset="0.872"
         style="stop-color:#2C2255"
         id="stop38" /></linearGradient><path
       d="m 164.653,376.089 c -0.164,-2.021 -0.504,-3.992 -1.012,-5.896 l -64.51,0 c -0.508,1.903 -0.849,3.874 -1.013,5.896 l 66.535,0 z"
       id="path40"
       inkscape:connector-curvature="0"
       style="fill:url(#SVGID_1_)" /><linearGradient
       id="SVGID_2_"
       gradientUnits="userSpaceOnUse"
       x1="131.3853"
       y1="358.5752"
       x2="131.3853"
       y2="432.21011"
       gradientTransform="matrix(1,0,0,-1,0,793)"><stop
         offset="0.3033"
         style="stop-color:#473788"
         id="stop43" /><stop
         offset="0.872"
         style="stop-color:#2C2255"
         id="stop45" /></linearGradient><path
       d="m 164.653,381.565 -66.534,0 c 0.164,2.021 0.503,3.992 1.012,5.896 l 64.511,0 c 0.508,-1.904 0.847,-3.875 1.011,-5.896 z"
       id="path47"
       inkscape:connector-curvature="0"
       style="fill:url(#SVGID_2_)" /><linearGradient
       id="SVGID_3_"
       gradientUnits="userSpaceOnUse"
       x1="131.3853"
       y1="358.57709"
       x2="131.3853"
       y2="432.2084"
       gradientTransform="matrix(1,0,0,-1,0,793)"><stop
         offset="0.3033"
         style="stop-color:#473788"
         id="stop50" /><stop
         offset="0.8631"
         style="stop-color:#2C2255"
         id="stop52" /></linearGradient><path
       d="m 131.386,412.217 c 13.397,0 24.945,-7.893 30.263,-19.281 l -60.526,0 c 5.318,11.388 16.866,19.281 30.263,19.281 z"
       id="path54"
       inkscape:connector-curvature="0"
       style="fill:url(#SVGID_3_)" /></g><g
     id="g56"
     transform="translate(-71.07,-327.726)"><path
       d="m 93.188,381.565 4.884,0 66.706,0 8.763,0 6.657,0 c 0.046,-0.871 0.072,-1.748 0.072,-2.631 0,-0.955 -0.035,-1.902 -0.089,-2.845 l -6.641,0 -8.763,0 -66.706,0 -5.229,0 -10.335,0 c -0.054,0.942 -0.089,1.89 -0.089,2.845 0,0.883 0.026,1.76 0.072,2.631 l 10.698,0 z"
       id="path58"
       inkscape:connector-curvature="0"
       style="fill:#ffffff" /><path
       d="m 100.928,364.718 -16.552,0 c -0.544,1.783 -0.895,3.612 -1.232,5.476 l 8.525,0 7.259,0 64.679,0 9.16,0 6.547,0 c -0.338,-1.863 -0.773,-3.692 -1.316,-5.476"
       id="path60"
       inkscape:connector-curvature="0"
       style="fill:#ffffff" /><path
       d="m 173.026,387.46 -9.16,0 -64.678,0 -6.912,0 -9.133,0 c 0.328,1.863 0.701,3.691 1.236,5.476 l 16.807,0 60.682,0 9.962,0 6.488,0 c 0.534,-1.784 0.965,-3.612 1.294,-5.476 l -6.586,0 z"
       id="path62"
       inkscape:connector-curvature="0"
       style="fill:#ffffff" /></g></svg>