<?xml version="1.0" encoding="UTF-8" standalone="no"?>
<svg
   xmlns:dc="http://purl.org/dc/elements/1.1/"
   xmlns:cc="http://creativecommons.org/ns#"
   xmlns:rdf="http://www.w3.org/1999/02/22-rdf-syntax-ns#"
   xmlns:svg="http://www.w3.org/2000/svg"
   xmlns="http://www.w3.org/2000/svg"
   xmlns:sodipodi="http://sodipodi.sourceforge.net/DTD/sodipodi-0.dtd"
   xmlns:inkscape="http://www.inkscape.org/namespaces/inkscape"
   viewBox="0 0 137.98212 243.02827"
   enable-background="new 0 0 517 270"
   id="svg2"
   version="1.1"
   inkscape:version="0.91 r13725"
   sodipodi:docname="play.svg"
   width="137.98212"
   height="243.02827">
  <metadata
     id="metadata18">
    <rdf:RDF>
      <cc:Work
         rdf:about="">
        <dc:format>image/svg+xml</dc:format>
        <dc:type
           rdf:resource="http://purl.org/dc/dcmitype/StillImage" />
        <dc:title></dc:title>
      </cc:Work>
    </rdf:RDF>
  </metadata>
  <defs
     id="defs16" />
  <sodipodi:namedview
     pagecolor="#ffffff"
     bordercolor="#666666"
     borderopacity="1"
     objecttolerance="10"
     gridtolerance="10"
     guidetolerance="10"
     inkscape:pageopacity="0"
     inkscape:pageshadow="2"
     inkscape:window-width="851"
     inkscape:window-height="493"
     id="namedview14"
     showgrid="false"
     fit-margin-top="0"
     fit-margin-left="0"
     fit-margin-right="0"
     fit-margin-bottom="0"
     inkscape:zoom="0.87407407"
     inkscape:cx="227.175"
     inkscape:cy="121.54843"
     inkscape:window-x="0"
     inkscape:window-y="0"
     inkscape:window-maximized="0"
     inkscape:current-layer="svg2" />
  <path
     style="fill:#92d13d"
     inkscape:connector-curvature="0"
     id="path6"
     d="M 6.7190639,12.879849 12.919064,6.6798485 c 9.5,-9.4 25,-8.8 33.7,1.3 L 132.41906,107.97985 c 7.5,8.7 7.4,21.6 -0.2,30.2 l -85.499996,96.9 c -8.8,9.9 -24.1,10.4 -33.5,1 l -6.2000001,-6.2 c -8.4,-8.4 -9,-21.8 -1.4,-31 l 51.2000001,-61.4 c 7,-8.4 7.1,-20.5 0.3,-29.1 L 5.1190639,43.379849 c -7.4,-9 -6.7,-22.2 1.6,-30.5 z" />
  <path
     style="fill:#49691f"
     inkscape:connector-curvature="0"
     id="path8"
     d="m 56.719064,137.67985 -51.2000001,61.4 c -7.6,9.1 -7,22.6 1.4,31 l 6.2000001,6.2 c 9.4,9.4 24.7,8.9 33.5,-1 l 18.5,-21 c 7,-13.8 10.9,-29.4 10.9,-45.9 0,-20.4 -6,-39.3 -16.2,-55.2 3.8,7.8 2.8,17.5 -3.1,24.5 z" />
</svg>
